<svg width="209" height="247" viewBox="0 0 209 247" fill="none" xmlns="http://www.w3.org/2000/svg">
<path d="M18.5667 0.5V246.962" stroke="white" stroke-width="0.80328"/>
<path d="M43.3748 0.5V246.962" stroke="white" stroke-width="0.80328"/>
<path d="M0.5 98.0071H150.157" stroke="white" stroke-width="0.80328"/>
<path d="M0.5 206.827H150.157" stroke="white" stroke-width="0.80328"/>
<path d="M10.7467 37.1331H56.0484" stroke="white" stroke-width="0.80328"/>
<path d="M128.632 81.2737C128.632 81.2737 128.632 230.02 128.632 223.054" stroke="white" stroke-width="0.80328"/>
<path d="M4.54462 83.4622L140.719 217.872" stroke="white" stroke-width="0.80328"/>
<path d="M2.92657 114.707L126.967 239.151" stroke="white" stroke-width="0.80328"/>
<path d="M4.81427 185.818L127.507 64.3378" stroke="white" stroke-width="0.80328"/>
<path d="M2.92676 222.989L145.842 81.576" stroke="white" stroke-width="0.80328"/>
<path d="M193.945 181.672H168.389V207.2H193.945V181.672Z" fill="#FF0066"/>
<path d="M168.763 221.907V166.966" stroke="white" stroke-width="0.800257"/>
<path d="M193.571 221.907V166.966" stroke="white" stroke-width="0.800257"/>
<path d="M153.667 182.046H208.667" stroke="white" stroke-width="0.800257"/>
<path d="M153.666 206.827H208.667" stroke="white" stroke-width="0.800257"/>
<path d="M18.6236 37.1292V97.2945L19.341 98.0114H18.6236V130.39V172.199V206.825H19.3203H43.0869V183.309L43.4415 182.957V155.288L57.3286 169.224L94.8106 206.826H128.114V205.37L74.3874 152.344L128.114 99.1679V98.0123H93.5569L56.5141 134.694L43.4415 147.634V121.796V98.0123V37.1298L18.6236 37.1292Z" fill="#C7C7C7"/>
</svg>
